<svg width="122" height="53" viewBox="0 0 122 53" fill="none" xmlns="http://www.w3.org/2000/svg">
<path d="M7.09473 31.928C7.09473 32.32 7.18673 32.672 7.37073 32.984C7.56273 33.288 7.81473 33.528 8.12673 33.704C8.43873 33.88 8.79073 33.968 9.18273 33.968C9.59073 33.968 9.95473 33.88 10.2747 33.704C10.5947 33.528 10.8467 33.288 11.0307 32.984C11.2147 32.672 11.3067 32.32 11.3067 31.928V26.324H12.4467V31.964C12.4467 32.596 12.2987 33.148 12.0027 33.62C11.7147 34.092 11.3227 34.456 10.8267 34.712C10.3387 34.968 9.79073 35.096 9.18273 35.096C8.57473 35.096 8.02673 34.968 7.53873 34.712C7.05073 34.456 6.66273 34.092 6.37473 33.62C6.08673 33.148 5.94273 32.596 5.94273 31.964V26.324H7.09473V31.928ZM22.3401 35.276L15.6321 28.472L15.9681 28.556L15.9921 35H14.8281V26.06H14.8881L21.5241 32.888L21.2481 32.828L21.2241 26.324H22.3761V35.276H22.3401ZM27.187 26.324C27.819 26.324 28.359 26.432 28.807 26.648C29.255 26.856 29.599 27.16 29.839 27.56C30.087 27.96 30.211 28.444 30.211 29.012C30.211 29.356 30.159 29.696 30.055 30.032C29.951 30.36 29.783 30.66 29.551 30.932C29.327 31.196 29.031 31.408 28.663 31.568C28.295 31.728 27.847 31.808 27.319 31.808H26.035V35H24.871V26.324H27.187ZM27.307 30.692C27.651 30.692 27.935 30.636 28.159 30.524C28.383 30.412 28.559 30.272 28.687 30.104C28.815 29.928 28.907 29.744 28.963 29.552C29.019 29.36 29.047 29.188 29.047 29.036C29.047 28.86 29.019 28.68 28.963 28.496C28.907 28.304 28.811 28.132 28.675 27.98C28.547 27.82 28.375 27.692 28.159 27.596C27.951 27.492 27.691 27.44 27.379 27.44H26.035V30.692H27.307ZM34.3118 26.324C34.7518 26.324 35.1558 26.384 35.5238 26.504C35.8998 26.616 36.2238 26.788 36.4958 27.02C36.7758 27.244 36.9918 27.524 37.1438 27.86C37.3038 28.188 37.3838 28.572 37.3838 29.012C37.3838 29.356 37.3318 29.692 37.2278 30.02C37.1318 30.348 36.9678 30.648 36.7358 30.92C36.5038 31.184 36.1998 31.4 35.8238 31.568C35.4558 31.728 34.9998 31.808 34.4558 31.808H33.1718V35H32.0078V26.324H34.3118ZM34.4318 30.692C34.7758 30.692 35.0598 30.64 35.2838 30.536C35.5158 30.432 35.6958 30.3 35.8238 30.14C35.9518 29.972 36.0438 29.792 36.0998 29.6C36.1558 29.408 36.1838 29.228 36.1838 29.06C36.1838 28.884 36.1518 28.704 36.0878 28.52C36.0318 28.328 35.9358 28.152 35.7998 27.992C35.6718 27.832 35.4998 27.7 35.2838 27.596C35.0758 27.492 34.8198 27.44 34.5158 27.44H33.1718V30.692H34.4318ZM35.8598 31.352L38.1278 35H36.7838L34.4798 31.388L35.8598 31.352ZM39.9179 26.324H45.5579V27.44H41.0819V30.08H45.0779V31.196H41.0819V33.884H45.7259V35H39.9179V26.324ZM54.118 34.352C53.974 34.448 53.778 34.556 53.53 34.676C53.282 34.796 52.99 34.896 52.654 34.976C52.326 35.056 51.966 35.096 51.574 35.096C50.902 35.088 50.294 34.968 49.75 34.736C49.214 34.504 48.758 34.188 48.382 33.788C48.006 33.388 47.714 32.928 47.506 32.408C47.306 31.88 47.206 31.32 47.206 30.728C47.206 30.08 47.31 29.484 47.518 28.94C47.734 28.388 48.034 27.912 48.418 27.512C48.802 27.104 49.254 26.788 49.774 26.564C50.302 26.34 50.878 26.228 51.502 26.228C52.022 26.228 52.494 26.3 52.918 26.444C53.342 26.58 53.706 26.744 54.01 26.936L53.542 28.016C53.302 27.856 53.01 27.704 52.666 27.56C52.33 27.416 51.954 27.344 51.538 27.344C51.114 27.344 50.714 27.428 50.338 27.596C49.962 27.764 49.63 28 49.342 28.304C49.054 28.608 48.826 28.964 48.658 29.372C48.498 29.772 48.418 30.204 48.418 30.668C48.418 31.14 48.49 31.58 48.634 31.988C48.786 32.388 48.998 32.736 49.27 33.032C49.55 33.328 49.886 33.56 50.278 33.728C50.67 33.896 51.11 33.98 51.598 33.98C52.038 33.98 52.43 33.912 52.774 33.776C53.118 33.64 53.402 33.488 53.626 33.32L54.118 34.352ZM56.0781 26.324H61.7181V27.44H57.2421V30.08H61.2381V31.196H57.2421V33.884H61.8861V35H56.0781V26.324ZM63.9062 35V26.324H66.2702C67.1262 26.324 67.8542 26.456 68.4542 26.72C69.0622 26.984 69.5502 27.332 69.9182 27.764C70.2862 28.196 70.5542 28.676 70.7222 29.204C70.8982 29.724 70.9862 30.244 70.9862 30.764C70.9862 31.42 70.8702 32.008 70.6382 32.528C70.4142 33.048 70.1022 33.492 69.7022 33.86C69.3022 34.228 68.8422 34.512 68.3222 34.712C67.8102 34.904 67.2662 35 66.6902 35H63.9062ZM65.0702 33.884H66.4622C66.9422 33.884 67.3822 33.812 67.7822 33.668C68.1902 33.524 68.5422 33.316 68.8382 33.044C69.1422 32.772 69.3782 32.44 69.5462 32.048C69.7142 31.648 69.7982 31.196 69.7982 30.692C69.7982 30.156 69.7102 29.688 69.5342 29.288C69.3582 28.88 69.1182 28.54 68.8142 28.268C68.5102 27.996 68.1662 27.792 67.7822 27.656C67.3982 27.512 66.9942 27.44 66.5702 27.44H65.0702V33.884ZM72.9414 26.324H78.5814V27.44H74.1054V30.08H78.1014V31.196H74.1054V33.884H78.7494V35H72.9414V26.324ZM88.2815 35.276L81.5735 28.472L81.9095 28.556L81.9335 35H80.7695V26.06H80.8295L87.4655 32.888L87.1895 32.828L87.1655 26.324H88.3175V35.276H88.2815ZM90.1765 26.324H95.9365V27.44H93.6085V35H92.4445V27.44H90.1765V26.324ZM97.7851 26.324H103.425V27.44H98.9491V30.08H102.945V31.196H98.9491V33.884H103.593V35H97.7851V26.324ZM105.613 35V26.324H107.977C108.833 26.324 109.561 26.456 110.161 26.72C110.769 26.984 111.257 27.332 111.625 27.764C111.993 28.196 112.261 28.676 112.429 29.204C112.605 29.724 112.693 30.244 112.693 30.764C112.693 31.42 112.577 32.008 112.345 32.528C112.121 33.048 111.809 33.492 111.409 33.86C111.009 34.228 110.549 34.512 110.029 34.712C109.517 34.904 108.973 35 108.397 35H105.613ZM106.777 33.884H108.169C108.649 33.884 109.089 33.812 109.489 33.668C109.897 33.524 110.249 33.316 110.545 33.044C110.849 32.772 111.085 32.44 111.253 32.048C111.421 31.648 111.505 31.196 111.505 30.692C111.505 30.156 111.417 29.688 111.241 29.288C111.065 28.88 110.825 28.54 110.521 28.268C110.217 27.996 109.873 27.792 109.489 27.656C109.105 27.512 108.701 27.44 108.277 27.44H106.777V33.884Z" fill="white"/>
<path d="M42.8308 40.324H48.5908V41.44H46.2628V49H45.0988V41.44H42.8308V40.324ZM50.4394 40.324H51.6034V49H50.4394V40.324ZM54.0957 49V40.048H54.1077L58.6557 46.504L58.1637 46.408L62.6997 40.048H62.7237V49H61.5717V42.688L61.6437 43.276L58.3677 47.908H58.3437L55.0197 43.276L55.2237 42.736V49H54.0957ZM65.2168 40.324H70.8568V41.44H66.3808V44.08H70.3768V45.196H66.3808V47.884H71.0247V49H65.2168V40.324ZM77.5329 41.872C77.2369 41.72 76.9129 41.588 76.5609 41.476C76.2089 41.364 75.8649 41.308 75.5289 41.308C75.0649 41.308 74.6929 41.416 74.4129 41.632C74.1409 41.848 74.0049 42.136 74.0049 42.496C74.0049 42.768 74.0929 43 74.2689 43.192C74.4449 43.376 74.6769 43.536 74.9649 43.672C75.2529 43.808 75.5529 43.936 75.8649 44.056C76.1369 44.16 76.4049 44.276 76.6689 44.404C76.9329 44.532 77.1689 44.692 77.3769 44.884C77.5929 45.076 77.7609 45.312 77.8809 45.592C78.0089 45.872 78.0729 46.22 78.0729 46.636C78.0729 47.092 77.9569 47.508 77.7249 47.884C77.5009 48.26 77.1769 48.556 76.7529 48.772C76.3289 48.988 75.8249 49.096 75.2409 49.096C74.8569 49.096 74.4889 49.052 74.1369 48.964C73.7929 48.876 73.4729 48.764 73.1769 48.628C72.8809 48.484 72.6169 48.336 72.3849 48.184L72.9009 47.272C73.0929 47.408 73.3129 47.54 73.5609 47.668C73.8089 47.788 74.0689 47.888 74.3409 47.968C74.6129 48.04 74.8769 48.076 75.1329 48.076C75.4049 48.076 75.6729 48.028 75.9369 47.932C76.2089 47.828 76.4329 47.672 76.6089 47.464C76.7849 47.256 76.8729 46.98 76.8729 46.636C76.8729 46.34 76.7929 46.096 76.6329 45.904C76.4809 45.704 76.2769 45.536 76.0209 45.4C75.7649 45.256 75.4929 45.128 75.2049 45.016C74.9329 44.912 74.6569 44.8 74.3769 44.68C74.0969 44.552 73.8369 44.4 73.5969 44.224C73.3569 44.04 73.1649 43.816 73.0209 43.552C72.8769 43.288 72.8049 42.968 72.8049 42.592C72.8049 42.136 72.9129 41.74 73.1289 41.404C73.3529 41.06 73.6569 40.792 74.0409 40.6C74.4249 40.4 74.8649 40.292 75.3609 40.276C75.9209 40.276 76.4129 40.344 76.8369 40.48C77.2689 40.616 77.6489 40.784 77.9769 40.984L77.5329 41.872Z" fill="white"/>
<path d="M51.7255 20.48C51.6589 20.48 51.5522 20.44 51.4055 20.36C51.2589 20.28 51.1589 20.2133 51.1055 20.16C51.0122 20.0533 50.9455 19.9267 50.9055 19.78C50.8789 19.6333 50.8655 19.4933 50.8655 19.36C50.8655 18.92 50.9655 18.42 51.1655 17.86C51.3655 17.3 51.5722 16.8267 51.7855 16.44C51.8122 16.3867 51.8655 16.2867 51.9455 16.14C52.0389 15.9933 52.1255 15.8467 52.2055 15.7C52.2855 15.5533 52.3255 15.4733 52.3255 15.46L51.9655 15.58L51.8455 15.56V15.58C51.7122 15.6733 51.5389 15.74 51.3255 15.78C51.1122 15.82 50.9322 15.8733 50.7855 15.94L50.1855 16.24H50.1455C50.0922 16.24 50.0455 16.2133 50.0055 16.16C49.9789 16.0933 49.9655 16.04 49.9655 16C49.9655 15.96 50.0389 15.9133 50.1855 15.86C50.3322 15.7933 50.5055 15.7267 50.7055 15.66C50.9189 15.5933 51.1122 15.5333 51.2855 15.48C51.4722 15.4267 51.5922 15.3933 51.6455 15.38C51.8189 15.34 51.9789 15.2933 52.1255 15.24H52.1455V15.22C52.2389 15.22 52.3389 15.1933 52.4455 15.14C52.6989 14.7667 52.9455 14.4 53.1855 14.04C53.4389 13.6667 53.7255 13.3267 54.0455 13.02L54.4855 12.6C54.5922 12.5067 54.6722 12.4267 54.7255 12.36C54.7789 12.2933 54.8722 12.2267 55.0055 12.16C55.0989 12.1733 55.2255 12.22 55.3855 12.3C55.5589 12.38 55.6455 12.4733 55.6455 12.58C55.6455 12.62 55.5789 12.6867 55.4455 12.78C55.3255 12.8733 55.1989 12.9667 55.0655 13.06C54.9322 13.14 54.8389 13.2 54.7855 13.24L54.6455 13.28C54.4855 13.4133 54.3389 13.5533 54.2055 13.7C54.0722 13.8467 53.9322 13.9933 53.7855 14.14C53.7055 14.2067 53.6389 14.2933 53.5855 14.4C53.5322 14.5067 53.4655 14.6 53.3855 14.68V14.76C53.3589 14.7733 53.3122 14.8133 53.2455 14.88C53.1922 14.9333 53.1655 14.9733 53.1655 15C53.3922 15.0133 53.6322 15.0333 53.8855 15.06C54.1389 15.0867 54.3522 15.1933 54.5255 15.38C54.3789 15.34 54.2389 15.3067 54.1055 15.28C53.9855 15.24 53.8522 15.22 53.7055 15.22C53.4389 15.22 53.1922 15.26 52.9655 15.34C52.9655 15.34 52.9255 15.4 52.8455 15.52C52.7655 15.64 52.6789 15.76 52.5855 15.88C52.5055 15.9867 52.4655 16.0467 52.4655 16.06C52.4255 16.1133 52.3455 16.2467 52.2255 16.46C52.1055 16.66 51.9922 16.86 51.8855 17.06C51.7922 17.2467 51.7389 17.3467 51.7255 17.36C51.7255 17.4267 51.7055 17.5133 51.6655 17.62C51.6255 17.7267 51.5922 17.8133 51.5655 17.88L51.5455 17.9V17.92C51.5455 18 51.5255 18.0867 51.4855 18.18C51.4455 18.2733 51.4122 18.3533 51.3855 18.42C51.2655 18.78 51.2055 19.1533 51.2055 19.54C51.2055 19.6467 51.2189 19.78 51.2455 19.94C51.2855 20.1 51.3655 20.2133 51.4855 20.28C51.5122 20.2933 51.5722 20.3067 51.6655 20.32C51.7722 20.3333 51.8255 20.36 51.8255 20.4C51.8255 20.4533 51.7922 20.48 51.7255 20.48ZM54.5455 15.38C54.5322 15.38 54.5255 15.38 54.5255 15.38C54.5255 15.38 54.5322 15.38 54.5455 15.38ZM54.4485 19.54C54.3285 19.54 54.2152 19.5133 54.1085 19.46C54.0018 19.4067 53.9485 19.3133 53.9485 19.18C53.9485 18.9267 53.9952 18.6133 54.0885 18.24C54.1952 17.8667 54.3152 17.4933 54.4485 17.12C54.5818 16.7333 54.6952 16.3867 54.7885 16.08C54.8952 15.76 54.9485 15.5333 54.9485 15.4V15.38H54.8485C54.6885 15.38 54.5218 15.3267 54.3485 15.22C54.1885 15.1 54.1085 14.9533 54.1085 14.78C54.1085 14.6067 54.1752 14.4533 54.3085 14.32C54.4418 14.1867 54.5685 14.0733 54.6885 13.98C54.7418 13.9533 54.7885 13.92 54.8285 13.88C54.8818 13.8267 54.9352 13.8 54.9885 13.8L55.1285 13.74V13.76C55.1285 13.7733 55.0752 13.84 54.9685 13.96C54.8618 14.0667 54.7952 14.1333 54.7685 14.16C54.7152 14.24 54.6552 14.3733 54.5885 14.56C54.5352 14.7467 54.5085 14.8867 54.5085 14.98C54.5085 15.06 54.5352 15.1067 54.5885 15.12C54.6418 15.1333 54.6952 15.14 54.7485 15.14C54.8018 15.14 54.8685 15.1133 54.9485 15.06C55.0285 15.0067 55.0818 14.9933 55.1085 15.02C55.1085 15.0067 55.1418 14.9333 55.2085 14.8C55.2885 14.6667 55.3352 14.5933 55.3485 14.58V14.5C55.4018 14.38 55.4552 14.2467 55.5085 14.1C55.5618 13.9533 55.6352 13.8267 55.7285 13.72V13.7C55.7952 13.5533 55.8885 13.3533 56.0085 13.1C56.1285 12.8467 56.2618 12.5733 56.4085 12.28C56.5552 11.9867 56.7018 11.72 56.8485 11.48C56.9952 11.24 57.1152 11.0733 57.2085 10.98C57.2085 10.9533 57.2618 10.8733 57.3685 10.74C57.4752 10.5933 57.5418 10.5 57.5685 10.46C57.7018 10.26 57.9018 10.0267 58.1685 9.76C58.4352 9.49333 58.7152 9.24667 59.0085 9.02C59.3018 8.78 59.5485 8.62667 59.7485 8.56L60.0285 8.46C60.2152 8.51333 60.3818 8.59333 60.5285 8.7C60.6752 8.79333 60.7485 8.94667 60.7485 9.16C60.7485 9.41333 60.6685 9.71333 60.5085 10.06C60.3485 10.4067 60.1618 10.74 59.9485 11.06C59.7352 11.38 59.5552 11.64 59.4085 11.84C59.3152 11.9733 59.2085 12.1 59.0885 12.22C58.9818 12.3267 58.8818 12.4533 58.7885 12.6C58.6952 12.6533 58.6152 12.7267 58.5485 12.82C58.4818 12.9 58.4152 12.9733 58.3485 13.04C58.2685 13.12 58.1285 13.2533 57.9285 13.44C57.7285 13.6267 57.5018 13.82 57.2485 14.02C57.0085 14.22 56.7818 14.4 56.5685 14.56C56.3685 14.7067 56.2285 14.7867 56.1485 14.8L56.1285 14.82C56.0352 14.9133 55.9352 14.98 55.8285 15.02C55.7218 15.0467 55.6218 15.0933 55.5285 15.16C55.4752 15.2133 55.4152 15.3267 55.3485 15.5C55.2818 15.66 55.2218 15.8333 55.1685 16.02C55.1152 16.1933 55.0685 16.3267 55.0285 16.42C54.9752 16.5667 54.9285 16.7267 54.8885 16.9C54.8618 17.06 54.8152 17.2067 54.7485 17.34L54.6285 17.76C54.6152 17.8133 54.5885 17.9267 54.5485 18.1C54.5085 18.26 54.4752 18.4133 54.4485 18.56C54.4352 18.7067 54.4352 18.78 54.4485 18.78C54.4752 18.7667 54.5952 18.6333 54.8085 18.38C55.0352 18.1267 55.3152 17.8133 55.6485 17.44C55.9818 17.0533 56.3218 16.6733 56.6685 16.3C57.0285 15.9267 57.3485 15.6067 57.6285 15.34C57.9085 15.0733 58.1018 14.9333 58.2085 14.92H58.3085C58.4952 14.92 58.6418 14.9467 58.7485 15C58.8552 15.04 58.8885 15.1867 58.8485 15.44C58.7018 15.9333 58.5085 16.4267 58.2685 16.92C58.0418 17.4 57.9285 17.9 57.9285 18.42C57.9285 18.4867 57.9352 18.5933 57.9485 18.74C57.9752 18.8867 58.0152 19.0133 58.0685 19.12C58.1352 19.24 58.2152 19.3 58.3085 19.3C58.4818 19.3 58.6618 19.2067 58.8485 19.02C59.0485 18.8333 59.2418 18.6267 59.4285 18.4C59.6152 18.1733 59.7752 18.0067 59.9085 17.9V18.12C59.8818 18.16 59.8552 18.2067 59.8285 18.26C59.8018 18.3133 59.7752 18.3667 59.7485 18.42C59.6552 18.5533 59.5085 18.7267 59.3085 18.94C59.1218 19.1533 58.9618 19.3133 58.8285 19.42C58.7885 19.4467 58.7285 19.4667 58.6485 19.48C58.5685 19.4933 58.5018 19.5 58.4485 19.5C58.3818 19.5 58.3218 19.4867 58.2685 19.46C58.2152 19.4333 58.1552 19.4067 58.0885 19.38C57.6352 19.1667 57.4085 18.8067 57.4085 18.3C57.4085 18.0467 57.4152 17.8133 57.4285 17.6C57.4552 17.3867 57.5018 17.16 57.5685 16.92C57.6352 16.6933 57.6885 16.4667 57.7285 16.24C57.7818 16.0133 57.8352 15.7867 57.8885 15.56L57.2485 16.18C57.1818 16.2333 57.1218 16.3067 57.0685 16.4C57.0285 16.48 56.9752 16.5533 56.9085 16.62C56.8418 16.7133 56.7618 16.7933 56.6685 16.86C56.5752 16.9267 56.4885 17.0067 56.4085 17.1C56.2885 17.22 56.1752 17.36 56.0685 17.52C55.9752 17.6667 55.8685 17.8 55.7485 17.92C55.6552 18.0133 55.5618 18.1067 55.4685 18.2C55.3885 18.2933 55.3085 18.3933 55.2285 18.5C55.1752 18.5667 55.1018 18.68 55.0085 18.84C54.9152 18.9867 54.8152 19.1333 54.7085 19.28C54.6152 19.4267 54.5285 19.5133 54.4485 19.54ZM55.6085 14.76H55.6685C56.6152 14.1733 57.5018 13.4533 58.3285 12.6C59.1552 11.7333 59.7818 10.78 60.2085 9.74C60.2352 9.64667 60.2418 9.58 60.2285 9.54C60.2285 9.5 60.2285 9.43333 60.2285 9.34C60.2285 9.3 60.1885 9.28667 60.1085 9.3C60.0418 9.3 59.9885 9.29333 59.9485 9.28C59.8552 9.33333 59.7352 9.39333 59.5885 9.46C59.4418 9.52667 59.3285 9.59333 59.2485 9.66C59.2218 9.67333 59.2018 9.69333 59.1885 9.72C59.1885 9.74667 59.1818 9.77333 59.1685 9.8L58.9085 10.04C58.8685 10.08 58.8218 10.12 58.7685 10.16C58.7285 10.1867 58.6885 10.2133 58.6485 10.24C58.5952 10.2933 58.5485 10.3467 58.5085 10.4C58.4818 10.44 58.4418 10.4867 58.3885 10.54C58.3352 10.5933 58.2818 10.64 58.2285 10.68C58.1885 10.72 58.1352 10.7667 58.0685 10.82C58.0285 10.8467 57.9485 10.9333 57.8285 11.08C57.7218 11.2267 57.5952 11.4 57.4485 11.6C57.3152 11.7867 57.1885 11.96 57.0685 12.12C56.9618 12.28 56.8952 12.3867 56.8685 12.44C56.8552 12.4533 56.8352 12.48 56.8085 12.52C56.7952 12.56 56.7752 12.5867 56.7485 12.6C56.7485 12.6667 56.7285 12.7 56.6885 12.7L56.7085 12.78H56.6485C56.6352 12.8333 56.5885 12.9267 56.5085 13.06C56.4285 13.18 56.3618 13.24 56.3085 13.24C56.3085 13.2533 56.3085 13.26 56.3085 13.26C56.3218 13.26 56.3285 13.26 56.3285 13.26V13.28C56.3285 13.2933 56.2952 13.3733 56.2285 13.52C56.1618 13.6667 56.0818 13.8333 55.9885 14.02C55.8952 14.2067 55.8085 14.3733 55.7285 14.52C55.6618 14.6533 55.6218 14.7333 55.6085 14.76ZM61.6037 19.1C61.2703 19.1 60.937 18.9933 60.6037 18.78C60.2703 18.5667 60.1037 18.2733 60.1037 17.9C60.1037 17.8333 60.1037 17.7667 60.1037 17.7C60.117 17.6333 60.1237 17.5733 60.1237 17.52C60.1237 17.44 60.0637 17.3733 59.9437 17.32C59.8237 17.2533 59.7637 17.18 59.7637 17.1C59.777 17.0867 59.797 17.08 59.8237 17.08C59.877 17.08 59.9303 17.0933 59.9837 17.12C60.037 17.1333 60.0903 17.14 60.1437 17.14C60.1837 17.14 60.2303 17.1267 60.2837 17.1C60.3103 17.0733 60.3637 16.9533 60.4437 16.74C60.537 16.5267 60.6703 16.2667 60.8437 15.96C61.017 15.6533 61.237 15.36 61.5037 15.08C61.7703 14.7867 62.0903 14.56 62.4637 14.4C62.5437 14.3733 62.6237 14.3467 62.7037 14.32C62.797 14.28 62.8837 14.26 62.9637 14.26C63.1103 14.26 63.2637 14.32 63.4237 14.44C63.597 14.5467 63.6837 14.68 63.6837 14.84C63.6837 14.9333 63.6637 15.02 63.6237 15.1C63.5837 15.1667 63.5437 15.24 63.5037 15.32L63.4037 15.38C63.3637 15.4467 63.2903 15.54 63.1837 15.66C63.0903 15.7667 63.0437 15.8467 63.0437 15.9C63.0437 15.9 63.037 15.9 63.0237 15.9C63.0237 15.9 63.0237 15.9067 63.0237 15.92L62.9437 15.94C62.8637 15.9933 62.797 16.06 62.7437 16.14C62.6903 16.22 62.6303 16.28 62.5637 16.32C62.3103 16.4933 62.057 16.66 61.8037 16.82C61.5637 16.98 61.3037 17.1267 61.0237 17.26C60.9703 17.2867 60.9103 17.3067 60.8437 17.32C60.777 17.3333 60.7237 17.3667 60.6837 17.42C60.6303 17.5 60.5903 17.5933 60.5637 17.7C60.5503 17.8067 60.5437 17.9133 60.5437 18.02C60.5437 18.18 60.5837 18.36 60.6637 18.56C60.7437 18.7467 60.8837 18.84 61.0837 18.84C61.1103 18.84 61.1303 18.84 61.1437 18.84C61.1703 18.8267 61.1903 18.82 61.2037 18.82C61.2837 18.82 61.357 18.8133 61.4237 18.8C61.5037 18.7867 61.5837 18.7733 61.6637 18.76L61.7837 18.7H61.8037C61.8703 18.7 61.997 18.6533 62.1837 18.56C62.3837 18.4533 62.577 18.3467 62.7637 18.24C62.9503 18.12 63.0637 18.04 63.1037 18C63.1303 17.9867 63.1503 17.9667 63.1637 17.94C63.1903 17.9133 63.2103 17.8933 63.2237 17.88C63.4503 17.7067 63.6837 17.54 63.9237 17.38C64.1637 17.22 64.3903 17.0333 64.6037 16.82V16.84H64.6437C64.6303 16.9067 64.577 16.9733 64.4837 17.04C64.4037 17.1067 64.3437 17.1733 64.3037 17.24C64.157 17.5067 63.9237 17.76 63.6037 18C63.2837 18.24 62.9903 18.4467 62.7237 18.62C62.6303 18.6867 62.537 18.76 62.4437 18.84C62.3637 18.9067 62.2703 18.96 62.1637 19C61.9637 19.0667 61.777 19.1 61.6037 19.1ZM60.8237 16.9C60.9303 16.9 61.0303 16.86 61.1237 16.78C61.2303 16.6867 61.3103 16.6333 61.3637 16.62L61.3837 16.64V16.62C61.637 16.5 61.877 16.3333 62.1037 16.12C62.3437 15.9067 62.5637 15.7 62.7637 15.5H62.8037C62.8037 15.42 62.8637 15.3333 62.9837 15.24C63.1037 15.1333 63.1637 15.0467 63.1637 14.98C63.1903 14.9533 63.217 14.9133 63.2437 14.86C63.2703 14.7933 63.2837 14.7467 63.2837 14.72C63.2437 14.6933 63.1837 14.68 63.1037 14.68C63.037 14.7067 62.9503 14.7533 62.8437 14.82C62.737 14.8867 62.6437 14.92 62.5637 14.92C62.5637 14.9333 62.497 14.9867 62.3637 15.08C62.2437 15.1733 62.117 15.2733 61.9837 15.38C61.8503 15.4867 61.7637 15.56 61.7237 15.6C61.657 15.6667 61.5503 15.7867 61.4037 15.96C61.257 16.1333 61.1237 16.3067 61.0037 16.48C60.8837 16.6533 60.8237 16.7867 60.8237 16.88V16.9Z" fill="white"/>
</svg>
